<svg
      width="505"
      height="286"
      viewBox="0 0 505 286"
      fill="none"
      xmlns="http://www.w3.org/2000/svg"
    >
      <path
        d="M499.874 129.027C493.897 154.208 479.04 174.948 460.008 192.056C440.509 209.598 418.185 224.113 396.203 238.302C384.793 245.661 372.886 252.352 360.792 258.53C341.682 268.295 321.454 277.268 300.279 281.382C291.275 283.136 281.758 284.052 272.692 282.174C260.226 279.597 250.182 271.089 240.433 263.467C217.768 245.738 195.195 227.886 172.064 210.762C160.359 202.1 148.343 192.723 135.054 186.56C122.231 180.63 108.524 177.432 94.8778 174.079C70.1943 168.024 46.0386 160.293 22.1934 151.522C13.9345 148.479 1.84112 145.7 0.350791 135.408C0.27317 134.849 0.226604 134.274 0.195555 133.716C0.195555 133.685 0.148984 134.43 0.211081 133.669C0.24213 133.296 0.257648 132.908 0.304221 132.536C0.428415 131.34 0.645756 130.145 0.925192 128.981C1.57721 126.248 2.55523 123.609 3.71955 121.063C10.0845 106.983 20.8738 94.8274 31.5855 83.8983C45.7436 69.4608 61.4852 56.5291 78.034 44.917C94.971 33.0409 112.948 22.4068 131.996 14.2411C147.8 7.47254 165.032 1.86828 182.388 2.008C189.374 2.0701 196.437 3.17232 202.864 6.01326C211.154 9.67698 217.768 16.2903 224.195 22.5155C232.516 30.5571 240.899 38.6607 250.896 44.622C262.664 51.6235 276.123 55.0388 289.816 54.4178C304.641 53.7503 319.436 52.5394 334.277 52.0892C355.374 51.4527 376.518 51.5614 397.585 53.0051C418.542 54.4489 439.779 57.0414 459.883 63.3442C474.771 68.017 491.304 75.3445 499.548 89.3939C502.373 94.2219 504.065 99.7796 503.988 105.399C503.91 113.363 501.675 121.327 499.874 129.027C499.734 129.648 500.014 130.362 499.874 130.968C502.591 119.387 506.285 106.346 502.684 94.5014C500.324 86.7237 494.953 80.2812 488.619 75.3755C473.964 64.0273 454.698 59.1061 436.799 55.7995C415.018 51.7787 392.788 50.3349 370.681 49.9003C351.245 49.5277 331.793 50.0245 312.388 51.0646C306.038 51.4061 299.673 51.8253 293.324 52.2444C279.911 53.1603 266.793 51.049 254.793 44.8238C244.205 39.3283 235.326 31.3022 226.803 23.0744C219.941 16.4455 213.079 9.056 204.401 4.77131C190.662 -2.01277 174.191 -0.537959 159.738 2.8929C140.659 7.41045 122.557 15.8556 105.574 25.4807C86.9915 36.0216 69.4181 48.3789 53.0711 62.1178C38.8509 74.0715 25.2051 87.1584 14.0897 102.093C7.18144 111.392 0.0868842 122.336 0.18003 134.337C0.195554 136.355 -0.332275 133.514 0.350791 135.408C2.01188 139.941 6.76228 147.191 10.9693 149.069C18.8556 152.593 27.1922 155.31 35.3424 158.166C42.6388 160.728 49.9817 163.196 57.3558 165.525C75.3328 171.207 93.6359 175.305 111.815 180.226C124.42 183.642 136.312 188.376 147.35 195.378C164.706 206.384 180.975 219.208 197.229 231.736C209.943 241.531 222.596 251.42 235.248 261.309C245.898 269.63 256.671 279.705 270.007 283.431C278.98 285.931 288.62 285.31 297.686 283.757C308.398 281.925 318.846 278.619 328.983 274.738C347.814 267.534 365.884 258.282 383.271 248.098C397.693 239.653 411.572 230.245 425.295 220.729C447.681 205.22 470.409 188.144 485.39 164.966C492.143 154.518 496.971 143.03 499.843 130.937C500.014 130.347 499.719 129.633 499.874 129.027Z"
        fill="#D7E5F2"
      />
      <path
        d="M439.404 85.7147C451.497 85.8389 463.637 87.9967 475.11 91.7846C484.021 94.7342 494.453 98.8481 500.445 106.455C501.998 108.427 503.131 110.709 503.41 113.224C503.441 113.472 503.426 113.736 503.473 113.984C503.597 114.698 503.519 113.348 503.488 113.565C503.41 114.046 503.426 114.559 503.364 115.055C503.24 116.002 503.053 116.949 502.821 117.881C501.672 122.383 499.452 126.574 496.983 130.487C489.796 141.897 480.031 151.708 470.018 160.619C456.698 172.48 442.152 182.958 426.954 192.257C409.939 202.674 392.009 211.647 373.38 218.757C354.626 225.914 335.066 231.239 315.102 233.583C295.774 235.849 275.981 235.26 257.072 230.385C248.534 228.181 240.368 225.215 232.808 220.667C223.881 215.295 215.265 209.412 206.323 204.04C185.381 191.466 163.802 179.978 142.084 168.816C123.626 159.331 104.841 150.528 86.3986 141.028C78.5278 136.976 68.9494 132.629 63.7488 125.1C57.9272 116.67 59.8211 105.819 63.4693 96.9231C69.4306 82.408 80.2666 70.0197 91.5527 59.3856C104.531 47.168 119.217 36.627 134.912 28.1819C148.216 21.0252 162.964 14.6603 178.178 13.3562C183.751 12.875 189.573 13.1389 194.851 15.1726C202.178 17.998 206.261 24.1611 208.916 31.2867C212.735 41.5016 215.529 51.7942 221.925 60.8448C229.858 72.0689 241.268 80.4675 253.967 85.5439C265.409 90.108 277.859 92.6074 289.968 94.6721C301.068 96.5506 312.323 97.4044 323.562 97.4665C349.224 97.6373 374.808 94.1288 400.159 90.4651C413.137 88.5711 426.271 85.6836 439.404 85.7147C439.42 85.7147 439.42 83.7741 439.404 83.7741C433.21 83.7586 427.155 84.5038 421.039 85.4197C413.417 86.553 405.81 87.7018 398.187 88.7885C384.479 90.76 370.756 92.6074 356.97 93.8804C333.56 96.0538 309.854 96.4885 286.677 92.1106C274.195 89.751 261.403 87.1584 249.822 81.787C237.325 75.9809 226.35 66.6509 219.27 54.7593C216.321 49.8071 214.132 44.4668 212.254 39.0333C210.732 34.5934 209.428 30.0603 207.488 25.7756C204.491 19.1623 199.462 14.3653 192.445 12.4093C179.591 8.82316 165.075 13.1234 153.075 17.7806C136.573 24.1921 121.157 33.5222 107.123 44.2494C93.5087 54.6662 80.6546 66.7906 71.0607 81.0884C64.0748 91.4897 58.7655 103.552 60.0851 116.328C60.9078 124.37 65.2701 130.036 71.7748 134.554C76.4631 137.798 81.5395 140.453 86.6004 143.061C94.2539 147.004 102.016 150.746 109.747 154.534C134.198 166.549 158.462 178.938 182.292 192.149C196.326 199.926 210.142 208.061 223.617 216.755C229.796 220.744 235.912 224.858 242.743 227.668C257.677 233.816 274.18 236.408 290.247 236.765C310.553 237.216 330.828 233.924 350.326 228.382C370.057 222.778 389.121 214.876 407.284 205.36C424.237 196.48 440.491 186.187 455.627 174.482C467.953 164.95 479.814 154.471 489.718 142.394C495.695 135.113 502.665 125.969 503.473 116.204C503.83 111.888 503.24 108.007 500.476 104.499C494.344 96.7213 483.633 92.5608 474.52 89.6268C463.234 85.9786 451.296 83.8983 439.42 83.7586C439.404 83.7741 439.389 85.7147 439.404 85.7147Z"
        fill="#D7E5F2"
      />
      <path
        d="M375.01 113.845C390.316 109.731 406.384 106.129 422.327 106.502C426.783 106.61 431.394 107.014 435.632 108.52C438.131 109.405 440.817 110.817 442.09 113.27C442.354 113.782 442.555 114.341 442.68 114.916C442.757 115.257 442.742 115.645 442.819 115.987C443.037 116.794 443.037 114.202 442.804 115.475C442.773 115.676 442.757 115.894 442.726 116.096C442.493 117.741 441.95 119.325 441.283 120.83C439.435 125.038 436.656 128.825 433.753 132.349C425.106 142.875 414.472 151.817 403.59 159.952C376.841 179.947 346.523 194.695 314.869 205.143C282.439 215.854 243.054 220.061 214.272 197.722C204.817 190.379 198.499 180.211 190.209 171.719C179.311 160.541 165.122 154.487 150.157 150.777C142.239 148.805 134.182 147.454 126.218 145.716C119.558 144.257 112.697 142.595 106.704 139.211C100.991 135.982 96.7843 131.03 95.0301 124.634C94.3004 121.948 94.316 119.62 94.8438 116.934C95.2785 114.76 95.915 112.634 96.6912 110.553C100.386 100.633 106.828 91.7225 114.063 84.0846C122.213 75.4686 131.916 68.0946 142.752 63.22C153.23 58.5162 164.982 56.2652 176.346 58.687C182.307 59.9599 187.943 62.4593 192.972 65.8902C199.306 70.2059 204.119 75.8412 208.931 81.7249C227.498 104.406 251.095 124.665 280.979 129.167C305.989 132.924 331.138 125.984 355.061 119.356C361.705 117.508 368.35 115.63 375.01 113.845C375.18 113.798 374.854 111.951 375.01 111.904C349.41 118.812 323.391 127.987 296.597 128.267C284.239 128.391 271.96 126.279 260.518 121.545C246.702 115.832 234.577 106.703 223.943 96.3022C217.175 89.6733 211.291 82.3769 205.174 75.1426C200.61 69.7247 195.223 64.9432 188.998 61.4968C178.457 55.6597 166.255 54.4644 154.612 57.2122C142.891 59.9755 132.117 66.2007 122.912 73.8541C114.032 81.2281 106.192 90.1546 100.588 100.261C96.2875 108.023 92.5617 117.617 95.0301 126.574C98.9732 140.857 113.892 145.002 126.762 147.78C143.45 151.382 160.713 153.788 175.772 162.435C181.609 165.789 186.825 170.027 191.404 174.932C195.441 179.248 198.98 183.967 202.799 188.454C206.867 193.235 211.307 197.644 216.43 201.292C223.415 206.245 231.379 209.815 239.576 212.222C257.445 217.469 276.415 216.646 294.454 212.734C310.755 209.21 326.341 203.218 341.726 196.899C358.15 190.162 373.861 181.918 388.749 172.231C401.727 163.786 414.239 154.347 425.293 143.449C429.453 139.335 433.458 135.004 436.874 130.238C439.233 126.947 441.531 123.314 442.478 119.325C443.037 116.996 443.254 113.86 442.245 111.625C441.081 109.079 438.395 107.588 435.88 106.657C431.657 105.089 427.016 104.67 422.545 104.561C415.73 104.39 408.883 105.058 402.146 106.067C392.987 107.433 383.952 109.498 375.01 111.904C374.823 111.951 375.149 113.798 375.01 113.845Z"
        fill="#D7E5F2"
      />
      <path
        d="M324.835 188.966C314.512 187.647 304.141 187.134 293.756 186.777C284.922 186.467 276.027 186.281 267.256 185.023C259.602 183.921 252.042 181.872 245.32 177.929C237.76 173.489 231.799 166.906 227.172 159.517C224.161 154.72 221.661 149.597 219.503 144.365C217.64 139.879 215.405 135.641 212.145 131.992C206.82 126.031 199.539 122.538 191.746 121.11C184.434 119.775 176.936 120.085 169.562 120.737C164.051 121.219 158.198 122.414 152.672 121.715C151.197 121.529 149.474 121.141 148.589 119.821C148.402 119.542 148.309 119.247 148.185 118.952C148.123 118.812 148.138 118.626 148.076 118.486C147.704 117.679 147.843 120.085 148.061 118.843C148.62 115.832 149.148 112.882 150.094 109.963C153.572 99.407 161.722 90.1701 173.66 90.6513C180.538 90.9308 187.104 93.8493 193.112 97.0163C199.71 100.509 206.106 104.437 212.347 108.535C222.065 114.916 231.286 122.01 239.918 129.788C251.033 139.801 261.031 152.174 274.645 158.958C294.346 168.754 316.53 165.292 336.292 157.685C344.567 154.487 352.499 150.451 360.805 147.33C364.453 145.964 371.237 143.201 374.156 147.346C374.963 148.495 374.978 149.674 375.32 150.978C375.537 151.817 375.475 150.063 375.336 150.637C375.273 150.916 375.289 151.211 375.273 151.506C375.227 151.879 375.18 152.236 375.118 152.593C374.963 153.556 374.715 154.487 374.451 155.418C373.193 159.61 371.035 163.553 368.551 167.139C362.637 175.74 354.238 183.176 344.38 186.871C338.031 189.277 331.542 189.789 324.835 188.966C324.897 188.982 324.742 190.891 324.835 190.907C331.79 191.776 338.543 191.171 345.11 188.563C350.264 186.513 354.983 183.424 359.128 179.745C366.114 173.566 372.696 165.106 374.854 155.853C375.77 151.925 376.391 144.707 371.253 143.496C368.8 142.906 366.099 143.667 363.77 144.396C360.153 145.529 356.675 147.066 353.213 148.588C333.498 157.25 312.757 166.099 290.728 162.265C282.221 160.79 274.149 157.499 267.101 152.515C261.031 148.231 255.752 142.952 250.428 137.798C233.211 121.11 214.396 106.362 193.112 95.1223C186.949 91.8622 180.149 88.8505 173.039 88.7419C167.202 88.6487 161.784 90.9929 157.67 95.0913C153.665 99.0965 151.135 104.359 149.582 109.746C148.651 113.022 147.611 116.717 148.03 120.178C148.511 124.23 154.1 123.92 157.065 123.796C163.678 123.532 170.245 122.476 176.874 122.228C184.651 121.933 192.662 122.46 199.943 125.426C208.186 128.779 214.396 135.221 218.153 143.216C220.668 148.572 222.779 154.021 225.76 159.16C228.228 163.413 231.069 167.465 234.422 171.067C240.011 177.09 246.935 181.53 254.728 184.123C262.599 186.746 270.935 187.631 279.178 188.112C288.99 188.702 298.832 188.78 308.643 189.401C314.046 189.742 319.433 190.224 324.804 190.907C324.773 190.891 324.928 188.982 324.835 188.966Z"
        fill="#D7E5F2"
      />
      <path
        d="M258.95 157.763C259.028 157.996 259.09 158.213 259.106 158.446C259.106 157.809 259.106 157.173 259.106 156.536C259.044 158.29 254.619 155.496 254.122 155.186C252.508 154.192 250.94 153.09 249.418 151.941C247.757 150.699 246.252 149.209 244.544 148.044C242.107 146.368 239.095 146.601 236.347 147.206C235.555 147.377 232.124 148.743 231.969 147.222C231.969 147.781 231.969 148.324 231.969 148.883C231.969 148.836 231.969 148.79 231.969 148.728C231.969 148.821 231.969 148.914 231.969 149.007C232.295 145.98 231.845 143.03 231.084 140.096C230.603 138.264 230.029 136.448 229.547 134.616C229.377 133.964 229.237 133.296 229.097 132.629C229.066 132.505 229.066 132.381 229.035 132.272C228.864 131.573 228.895 133.219 229.035 133.172C229.097 133.141 229.113 132.769 229.268 132.769C230.432 132.738 231.333 133.685 232.295 134.321C234.003 135.454 235.773 136.494 237.542 137.519C241.517 139.848 245.522 142.161 249.124 145.017C253.408 148.433 256.979 152.609 258.95 157.763C258.733 157.204 259.168 156.397 258.95 155.822C256.016 148.138 249.62 142.953 242.836 138.745C239.7 136.805 236.456 135.051 233.351 133.064C232.326 132.412 231.115 131.17 229.936 130.844C229.284 130.673 229.097 130.952 229.02 131.573C228.771 133.778 229.377 135.92 229.967 138.016C230.401 139.568 230.867 141.105 231.255 142.658C231.441 143.434 231.628 144.21 231.767 144.986C231.83 145.312 231.876 145.638 231.923 145.964C231.954 146.135 231.969 146.321 231.985 146.492C232 146.663 232.016 146.818 232.031 146.989C232.062 147.532 232.078 147.299 232.062 146.306C231.814 147.004 231.83 148.479 231.985 149.178C232.187 150.094 233.118 149.876 233.848 149.737C236.984 149.147 240.182 147.967 243.317 149.302C244.466 149.799 245.351 150.637 246.298 151.413C247.447 152.36 248.611 153.276 249.807 154.161C251.794 155.636 253.858 157.111 256.078 158.228C256.668 158.523 258.547 159.626 259.059 158.725C259.416 158.104 259.183 156.49 258.95 155.807C259.152 156.396 258.749 157.173 258.95 157.763Z"
        fill="#D7E5F2"
      />
    </svg>
